<svg width="16" height="16" viewBox="0 0 16 16" fill="none" xmlns="http://www.w3.org/2000/svg">
<path d="M13.9999 8C13.9999 8.13261 13.9472 8.25979 13.8535 8.35356C13.7597 8.44733 13.6325 8.5 13.4999 8.5H3.70678L7.35366 12.1463C7.40011 12.1927 7.43696 12.2479 7.4621 12.3086C7.48724 12.3693 7.50018 12.4343 7.50018 12.5C7.50018 12.5657 7.48724 12.6308 7.4621 12.6915C7.43696 12.7521 7.40011 12.8073 7.35366 12.8538C7.3072 12.9002 7.25205 12.9371 7.19135 12.9622C7.13066 12.9873 7.0656 13.0003 6.99991 13.0003C6.93421 13.0003 6.86915 12.9873 6.80846 12.9622C6.74776 12.9371 6.69261 12.9002 6.64615 12.8538L2.14615 8.35375C2.09967 8.30732 2.06279 8.25217 2.03763 8.19147C2.01246 8.13077 1.99951 8.06571 1.99951 8C1.99951 7.9343 2.01246 7.86923 2.03763 7.80853C2.06279 7.74783 2.09967 7.69269 2.14615 7.64625L6.64615 3.14625C6.73997 3.05243 6.86722 2.99973 6.99991 2.99973C7.13259 2.99973 7.25984 3.05243 7.35366 3.14625C7.44748 3.24007 7.50018 3.36732 7.50018 3.5C7.50018 3.63269 7.44748 3.75993 7.35366 3.85375L3.70678 7.5H13.4999C13.6325 7.5 13.7597 7.55268 13.8535 7.64645C13.9472 7.74022 13.9999 7.86739 13.9999 8Z" fill="white"/>
</svg>
