<svg width="16" height="16" viewBox="0 0 16 16" fill="none" xmlns="http://www.w3.org/2000/svg">
<path d="M8 8.5C8 8.63261 7.94732 8.75979 7.85355 8.85355C7.75979 8.94732 7.63261 9 7.5 9H4.5C4.36739 9 4.24021 8.94732 4.14645 8.85355C4.05268 8.75979 4 8.63261 4 8.5C4 8.36739 4.05268 8.24021 4.14645 8.14645C4.24021 8.05268 4.36739 8 4.5 8H7.5C7.63261 8 7.75979 8.05268 7.85355 8.14645C7.94732 8.24021 8 8.36739 8 8.5ZM7.5 6H4.5C4.36739 6 4.24021 6.05268 4.14645 6.14645C4.05268 6.24021 4 6.36739 4 6.5C4 6.63261 4.05268 6.75979 4.14645 6.85355C4.24021 6.94732 4.36739 7 4.5 7H7.5C7.63261 7 7.75979 6.94732 7.85355 6.85355C7.94732 6.75979 8 6.63261 8 6.5C8 6.36739 7.94732 6.24021 7.85355 6.14645C7.75979 6.05268 7.63261 6 7.5 6ZM14.5 10.0919V14C14.5008 14.0881 14.4783 14.1749 14.4347 14.2516C14.3911 14.3282 14.3281 14.392 14.252 14.4364C14.1758 14.4808 14.0893 14.5043 14.0011 14.5045C13.913 14.5047 13.8263 14.4816 13.75 14.4375L12.25 13.5787L10.75 14.4375C10.6737 14.4816 10.587 14.5047 10.4989 14.5045C10.4107 14.5043 10.3242 14.4808 10.248 14.4364C10.1719 14.392 10.1089 14.3282 10.0653 14.2516C10.0217 14.1749 9.99921 14.0881 10 14V12.5H2.5C2.23478 12.5 1.98043 12.3946 1.79289 12.2071C1.60536 12.0196 1.5 11.7652 1.5 11.5V3.5C1.5 3.23478 1.60536 2.98043 1.79289 2.79289C1.98043 2.60536 2.23478 2.5 2.5 2.5H13.5C13.7652 2.5 14.0196 2.60536 14.2071 2.79289C14.3946 2.98043 14.5 3.23478 14.5 3.5V5.40812C14.8161 5.7108 15.0676 6.07433 15.2394 6.47681C15.4113 6.87928 15.4999 7.31238 15.4999 7.75C15.4999 8.18762 15.4113 8.62072 15.2394 9.0232C15.0676 9.42567 14.8161 9.7892 14.5 10.0919ZM10 11.5V10.0919C9.45513 9.56639 9.11078 8.8672 9.02637 8.11495C8.94196 7.36269 9.12278 6.60457 9.53764 5.9714C9.95249 5.33822 10.5754 4.86972 11.2987 4.64674C12.0221 4.42376 12.8007 4.46028 13.5 4.75V3.5H2.5V11.5H10ZM13.5 10.75C13.104 10.9154 12.6791 11.0006 12.25 11.0006C11.8209 11.0006 11.396 10.9154 11 10.75V13.1388L12 12.5662C12.0756 12.5231 12.1611 12.5003 12.2481 12.5003C12.3352 12.5003 12.4207 12.5231 12.4963 12.5662L13.4963 13.1388L13.5 10.75ZM14.5 7.75C14.5 7.30499 14.368 6.86998 14.1208 6.49997C13.8736 6.12996 13.5222 5.84157 13.111 5.67127C12.6999 5.50097 12.2475 5.45642 11.811 5.54323C11.3746 5.63005 10.9737 5.84434 10.659 6.15901C10.3443 6.47368 10.13 6.87459 10.0432 7.31105C9.95642 7.7475 10.001 8.1999 10.1713 8.61104C10.3416 9.02217 10.63 9.37357 11 9.62081C11.37 9.86804 11.805 10 12.25 10C12.5455 10 12.8381 9.9418 13.111 9.82873C13.384 9.71566 13.6321 9.54992 13.841 9.34099C14.0499 9.13206 14.2157 8.88402 14.3287 8.61104C14.4418 8.33805 14.5 8.04547 14.5 7.75Z" fill="#E9ECF0"/>
</svg>
