<svg width="16" height="16" viewBox="0 0 16 16" fill="none" xmlns="http://www.w3.org/2000/svg">
<path d="M5.83187 4.37513L1.74999 8.00013L5.82937 11.6251C5.87861 11.6687 5.91879 11.7216 5.94761 11.7807C5.97643 11.8398 5.99333 11.904 5.99733 11.9696C6.00133 12.0353 5.99237 12.1011 5.97095 12.1632C5.94953 12.2254 5.91608 12.2828 5.87249 12.332C5.82891 12.3813 5.77606 12.4214 5.71695 12.4502C5.65784 12.4791 5.59363 12.496 5.52799 12.5C5.46235 12.504 5.39656 12.495 5.33439 12.4736C5.27221 12.4522 5.21486 12.4187 5.16562 12.3751L0.665619 8.37513C0.612416 8.32821 0.569805 8.2705 0.540619 8.20585C0.511432 8.14119 0.496338 8.07107 0.496338 8.00013C0.496338 7.92919 0.511432 7.85907 0.540619 7.79441C0.569805 7.72976 0.612416 7.67205 0.665619 7.62513L5.16562 3.62513C5.21486 3.58138 5.27224 3.54776 5.33448 3.52619C5.39672 3.50462 5.4626 3.49552 5.52835 3.49941C5.59411 3.5033 5.65846 3.5201 5.71772 3.54886C5.77698 3.57761 5.83 3.61776 5.87374 3.667C5.91749 3.71625 5.95111 3.77363 5.97268 3.83587C5.99425 3.89811 6.00335 3.96398 5.99946 4.02974C5.99558 4.0955 5.97877 4.15984 5.95002 4.2191C5.92126 4.27837 5.88111 4.33138 5.83187 4.37513ZM15.3319 7.62513L10.8319 3.62513C10.7324 3.53711 10.6021 3.49221 10.4695 3.50029C10.3369 3.50838 10.213 3.5688 10.125 3.66825C10.037 3.76771 9.99207 3.89806 10.0002 4.03062C10.0082 4.16319 10.0687 4.28711 10.1681 4.37513L14.25 8.00013L10.1706 11.6251C10.1214 11.6687 10.0812 11.7216 10.0524 11.7807C10.0236 11.8398 10.0067 11.904 10.0027 11.9696C9.99865 12.0353 10.0076 12.1011 10.029 12.1632C10.0505 12.2254 10.0839 12.2828 10.1275 12.332C10.1711 12.3813 10.2239 12.4214 10.283 12.4502C10.3422 12.4791 10.4064 12.496 10.472 12.5C10.5376 12.504 10.6034 12.495 10.6656 12.4736C10.7278 12.4522 10.7851 12.4187 10.8344 12.3751L15.3344 8.37513C15.3876 8.32821 15.4302 8.2705 15.4594 8.20585C15.4886 8.14119 15.5037 8.07107 15.5037 8.00013C15.5037 7.92919 15.4886 7.85907 15.4594 7.79441C15.4302 7.72976 15.3876 7.67205 15.3344 7.62513H15.3319Z" fill="#E9ECF0"/>
</svg>
