<svg width="16" height="16" viewBox="0 0 16 16" fill="none" xmlns="http://www.w3.org/2000/svg">
<path d="M14.5 2C14.5 1.86739 14.4473 1.74021 14.3535 1.64645C14.2598 1.55268 14.1326 1.5 14 1.5C11.245 1.5 8.41812 4.60687 6.84812 6.66437C6.28741 6.49265 5.69425 6.45482 5.11627 6.55392C4.53829 6.65302 3.99161 6.88629 3.52013 7.23499C3.04865 7.58369 2.66553 8.0381 2.40152 8.56172C2.13752 9.08535 1.99999 9.66359 1.99999 10.25C1.99999 12.18 0.778743 13.0456 0.720618 13.0856C0.631923 13.1455 0.564786 13.2323 0.529079 13.3332C0.493371 13.4341 0.490977 13.5437 0.522249 13.6461C0.553521 13.7485 0.616809 13.8381 0.702806 13.9018C0.788803 13.9655 0.892971 13.9999 0.999993 14H5.74999C6.33641 14 6.91465 13.8625 7.43827 13.5985C7.96189 13.3345 8.4163 12.9513 8.765 12.4799C9.1137 12.0084 9.34697 11.4617 9.44607 10.8837C9.54517 10.3057 9.50734 9.71258 9.33562 9.15187C11.3937 7.58187 14.5 4.755 14.5 2ZM5.74999 13H2.16437C2.58624 12.4006 2.99999 11.495 2.99999 10.25C2.99999 9.7061 3.16128 9.17442 3.46345 8.72218C3.76563 8.26995 4.19512 7.91747 4.69761 7.70933C5.20011 7.50119 5.75304 7.44673 6.28649 7.55284C6.81994 7.65895 7.30994 7.92086 7.69454 8.30546C8.07913 8.69005 8.34104 9.18005 8.44715 9.7135C8.55326 10.2469 8.4988 10.7999 8.29066 11.3024C8.08252 11.8049 7.73005 12.2344 7.27781 12.5365C6.82558 12.8387 6.29389 13 5.74999 13ZM7.77624 7.09688C7.99041 6.81938 8.20062 6.55792 8.40687 6.3125C8.9117 6.65357 9.34642 7.0883 9.68749 7.59312C9.44166 7.79896 9.1802 8.00917 8.90312 8.22375C8.61175 7.77238 8.22761 7.38824 7.77624 7.09688ZM10.445 6.92938C10.0675 6.39675 9.60262 5.93185 9.06999 5.55438C11.0562 3.39625 12.5544 2.74187 13.4387 2.56C13.2606 3.445 12.6031 4.94313 10.445 6.92938Z" fill="#E9ECF0"/>
</svg>
