<svg width="16" height="16" viewBox="0 0 16 16" fill="none" xmlns="http://www.w3.org/2000/svg">
<path d="M14.1725 4.31241C14.1422 4.23745 14.0941 4.17096 14.0324 4.11865C13.9708 4.06634 13.8973 4.02976 13.8184 4.01207C13.7395 3.99437 13.6575 3.99607 13.5794 4.01703C13.5013 4.03799 13.4294 4.07759 13.37 4.13241L10.8512 6.45679L9.77437 6.22554L9.54312 5.14866L11.8675 2.62991C11.9223 2.57047 11.9619 2.49862 11.9829 2.42051C12.0038 2.34241 12.0055 2.26039 11.9878 2.18148C11.9701 2.10258 11.9336 2.02914 11.8813 1.96747C11.829 1.9058 11.7625 1.85774 11.6875 1.82741C11.0043 1.55106 10.2638 1.44672 9.53082 1.52355C8.7979 1.60038 8.09505 1.85605 7.48405 2.26807C6.87305 2.68009 6.37259 3.23587 6.02665 3.88657C5.6807 4.53727 5.49985 5.26297 5.5 5.99991C5.49919 6.62221 5.62685 7.23798 5.875 7.80866L2.11187 11.0624C2.1025 11.0699 2.09375 11.0787 2.085 11.0868C1.70988 11.4619 1.49915 11.9707 1.49915 12.5012C1.49915 12.7638 1.55088 13.0239 1.6514 13.2666C1.75192 13.5093 1.89926 13.7298 2.085 13.9155C2.27074 14.1013 2.49124 14.2486 2.73392 14.3491C2.9766 14.4497 3.2367 14.5014 3.49937 14.5014C4.02987 14.5014 4.53863 14.2907 4.91375 13.9155C4.92187 13.9074 4.93062 13.898 4.93812 13.8893L8.19125 10.1249C8.87652 10.4257 9.62599 10.5509 10.3718 10.489C11.1176 10.4272 11.8363 10.1803 12.4626 9.77078C13.089 9.36122 13.6034 8.80191 13.9591 8.14348C14.3148 7.48505 14.5007 6.7483 14.5 5.99991C14.501 5.42153 14.3898 4.84845 14.1725 4.31241ZM10 9.49991C9.40817 9.4991 8.82616 9.3486 8.30812 9.06241C8.20776 9.00697 8.09139 8.9877 7.97852 9.00784C7.86564 9.02798 7.76312 9.08631 7.68812 9.17304L4.19437 13.2193C4.00531 13.3989 3.75356 13.4976 3.4928 13.4942C3.23204 13.4909 2.9829 13.3858 2.7985 13.2014C2.61409 13.017 2.50902 12.7679 2.50568 12.5071C2.50235 12.2463 2.601 11.9946 2.78062 11.8055L6.82375 8.31241C6.91063 8.23738 6.96905 8.13474 6.98919 8.02173C7.00934 7.90872 6.98998 7.79222 6.93437 7.69179C6.61564 7.11531 6.46606 6.46059 6.50283 5.8029C6.5396 5.14521 6.76122 4.51124 7.14222 3.97388C7.52322 3.43653 8.04813 3.0176 8.6566 2.76526C9.26507 2.51291 9.9324 2.43741 10.5819 2.54741L8.63187 4.66054C8.57762 4.7194 8.53829 4.79042 8.51719 4.86764C8.49609 4.94486 8.49384 5.02602 8.51062 5.10429L8.86437 6.74991C8.88461 6.84403 8.93158 6.93031 8.99965 6.99838C9.06773 7.06646 9.154 7.11343 9.24812 7.13366L10.895 7.48741C10.9733 7.5042 11.0544 7.50195 11.1316 7.48085C11.2089 7.45975 11.2799 7.42042 11.3387 7.36616L13.4519 5.41616C13.5361 5.91804 13.51 6.43225 13.3754 6.92302C13.2408 7.41379 13.0009 7.86935 12.6723 8.25801C12.3438 8.64667 11.9346 8.95909 11.4731 9.17356C11.0116 9.38803 10.5089 9.4994 10 9.49991Z" fill="#E9ECF0"/>
</svg>
